PathFileType	4	(X/Y/Z)	C:/Users/empri/Downloads/Take 2024-05-09 02.19.42 PM.trc
DataRate	CameraRate	NumFrames	NumMarkers	Units	OrigDataRate	OrigDataStartFrame	OrigNumFrames
240	240	30	9	mm	240	319	1279
Frame#	Time	C7	CLAV	RELB	RFIN	RFRM	RSHO	RUPA	RWRA	RWRB
X1	Y1	Z1	X2	Y2	Z2	X3	Y3	Z3	X4	Y4	Z4	X5	Y5	Z5	X6	Y6	Z6	X7	Y7	Z7	X8	Y8	Z8	X9	Y9	Z9
319	1.329	-137.893	1543.9	-60.2585	30.5647	1372.37	-136.316	84.1237	1323.05	278.309	339.612	1395.88	160.63	177.463	1327.25	298.502	-6.08815	1502.52	62.0439	33.9355	1401.26	189.409	284.563	1332.46	186.039	307.076	1336.98	277.02
320	1.333	-137.94	1543.91	-60.2861	30.6131	1372.46	-136.276	83.9567	1324.75	278.881	338.445	1400.18	161.201	177.037	1330.05	299.178	-6.2372	1502.84	61.9467	33.8982	1402.05	189.652	284.211	1336.1	186.74	306.504	1341.3	277.81
321	1.337	-137.981	1543.93	-60.3089	30.6244	1372.49	-136.206	83.7716	1326.42	279.508	337.202	1404.45	161.753	176.577	1332.84	299.788	-6.4059	1503.16	61.8513	33.8596	1402.95	189.889	283.831	1339.82	187.512	305.959	1345.55	278.516
322	1.342	-138.035	1543.94	-60.3452	30.6388	1372.56	-136.114	83.5003	1328.51	280.218	335.412	1409.55	162.582	176.02	1336.28	300.653	-6.57654	1503.56	61.7309	33.7795	1404.02	190.171	283.271	1344.31	188.438	305.246	1351.04	279.842
323	1.346	-138.068	1543.96	-60.3629	30.6439	1372.62	-136.052	83.2474	1330.23	280.766	334.173	1413.83	163.086	175.565	1339.07	301.258	-6.74552	1503.87	61.6279	33.7043	1404.9	190.441	282.904	1347.93	189.198	304.66	1355.36	280.584
324	1.35	-138.127	1543.99	-60.3686	30.6549	1372.68	-135.976	83.0682	1331.84	281.357	332.913	1418.06	163.637	175.084	1341.78	301.866	-6.94533	1504.19	61.5527	33.6701	1405.86	190.715	282.469	1351.53	189.935	303.878	1359.45	281.073
325	1.354	-138.168	1544	-60.385	30.6699	1372.76	-135.933	82.8515	1333.51	281.865	331.583	1422.22	164.18	174.564	1344.47	302.528	-7.11577	1504.51	61.4763	33.5847	1406.72	190.928	281.988	1355.04	190.577	303.124	1363.58	281.787
326	1.358	-138.214	1544.02	-60.3975	30.7083	1372.84	-135.852	82.6082	1335.12	282.405	330.272	1426.25	164.734	174.072	1347.2	303.114	-7.27606	1504.83	61.3856	33.5084	1407.68	191.19	281.559	1358.79	191.213	302.435	1367.79	282.558
327	1.363	-138.274	1544.05	-60.4219	30.7323	1372.93	-135.746	82.3326	1337.16	283.058	328.546	1431.27	165.414	173.334	1350.38	303.854	-7.47868	1505.25	61.2687	33.4376	1408.84	191.467	280.982	1363.18	192.106	301.549	1372.86	283.439
328	1.367	-138.32	1544.07	-60.4342	30.7441	1373.01	-135.661	82.0992	1338.77	283.58	327.188	1435.25	165.972	172.851	1353.03	304.387	-7.61124	1505.61	61.1698	33.3539	1409.83	191.697	280.479	1366.66	192.814	300.836	1376.6	284.015
329	1.371	-138.365	1544.1	-60.4543	30.7531	1373.07	-135.578	81.8668	1340.42	284.09	325.82	1439.26	166.478	172.282	1355.63	304.994	-7.80609	1505.94	61.0812	33.2931	1410.74	191.943	279.927	1370.14	193.485	300.142	1380.04	284.402
330	1.375	-138.405	1544.12	-60.4605	30.7494	1373.14	-135.491	81.6201	1342.01	284.665	324.25	1443.23	167.174	171.755	1358.24	305.598	-7.99448	1506.29	61.0021	33.1917	1411.66	192.172	279.308	1373.63	194.076	299.067	1384.9	285.545
331	1.379	-138.486	1544.18	-60.4931	30.8103	1373.21	-135.315	81.4012	1343.62	285.155	322.723	1447.21	167.565	171.189	1360.83	306.145	-8.15552	1506.63	60.9231	33.1022	1412.61	192.429	278.698	1377.07	194.746	298.25	1389	286.375
332	1.383	-138.54	1544.19	-60.4911	30.8185	1373.25	-135.21	81.1184	1345.21	285.701	321.667	1451.01	167.873	170.618	1363.34	306.787	-8.32049	1506.95	60.8206	33.0526	1413.51	192.631	277.992	1380.48	195.378	297.437	1393.05	287.099
333	1.387	-138.594	1544.23	-60.5146	30.7645	1373.32	-135.226	80.8708	1346.74	286.172	320.24	1454.7	168.568	169.999	1365.83	307.329	-8.47742	1507.26	60.7063	32.9738	1414.46	192.828	277.367	1383.83	196	296.442	1396.84	287.563
334	1.392	-138.664	1544.26	-60.5402	30.7652	1373.42	-135.137	80.5148	1348.67	286.747	318.424	1459.37	169.125	169.207	1369.11	308.116	-8.67308	1507.69	60.5448	32.891	1415.59	193.076	276.577	1388	196.791	295.288	1401.57	288.326
335	1.396	-138.715	1544.29	-60.5588	30.7725	1373.5	-135.061	80.2145	1350.3	287.25	316.983	1463.1	169.554	168.606	1371.52	308.654	-8.85329	1508.02	60.4377	32.8113	1416.51	193.235	275.87	1391.29	197.411	294.289	1405.26	288.905
336	1.4	-138.769	1544.31	-60.5776	30.7841	1373.57	-134.987	79.8965	1351.9	287.753	315.446	1466.84	169.738	167.968	1373.99	309.274	-9.06819	1508.37	60.3455	32.7526	1417.48	193.494	275.203	1394.57	198.061	293.39	1408.97	289.527
337	1.404	-138.823	1544.34	-60.5924	30.7825	1373.64	-134.914	79.575	1353.51	288.29	314.062	1470.47	170.061	167.353	1376.47	309.795	-9.23676	1508.72	60.2099	32.6964	1418.35	193.63	274.503	1397.76	198.678	292.376	1412.61	290.134
338	1.408	-138.889	1544.37	-60.613	30.7892	1373.72	-134.847	79.2108	1355.03	288.797	312.603	1474	170.504	166.684	1378.93	310.291	-9.38852	1509.05	60.1004	32.6477	1419.31	193.806	273.791	1400.96	199.256	291.247	1416.32	290.68
339	1.413	-138.974	1544.41	-60.6386	30.7985	1373.82	-134.764	78.956	1356.83	289.282	310.674	1478.32	171.043	165.825	1381.97	311.018	-9.5951	1509.46	59.94	32.513	1420.38	194.032	272.941	1404.84	199.994	290.055	1420.56	291.278
340	1.417	-139.04	1544.45	-60.6579	30.8153	1373.9	-134.691	78.6796	1358.28	289.804	309.169	1481.75	171.51	165.132	1384.35	311.509	-9.77295	1509.81	59.8315	32.4297	1421.31	194.208	272.309	1407.67	200.607	289.098	1423.84	291.803
341	1.421	-139.108	1544.5	-60.6749	30.8594	1373.99	-134.569	78.3492	1359.87	290.226	307.627	1485.11	171.933	164.456	1386.67	312.081	-9.96479	1510.17	59.722	32.3519	1422.25	194.374	271.795	1410.49	201.302	288.016	1427.31	292.392
342	1.425	-139.171	1544.54	-60.6916	30.8616	1374.08	-134.507	78.0091	1361.35	290.684	306.156	1488.34	172.327	163.759	1388.92	312.566	-10.137	1510.52	59.6329	32.2524	1423.14	194.562	271.622	1412.92	201.931	286.902	1430.71	292.931
343	1.429	-139.226	1544.58	-60.7037	30.8643	1374.17	-134.436	77.7046	1362.87	291.174	304.516	1491.6	172.645	163.161	1391.23	313.148	-10.3321	1510.86	59.5306	32.1688	1424.11	194.702	273.272	1414.31	202.284	285.876	1434.08	293.452
344	1.433	-139.294	1544.62	-60.7309	30.8693	1374.27	-134.356	77.3745	1364.33	291.568	303.025	1494.82	173.012	162.391	1393.5	313.432	-10.5145	1511.2	59.4193	32.071	1425.01	194.887	270.199	1418.95	203.078	284.707	1437.5	294.144
345	1.438	-139.383	1544.66	-60.7508	30.8797	1374.37	-134.262	76.9427	1366.19	292.241	301.055	1498.75	173.543	161.518	1396.34	313.991	-10.7326	1511.63	59.2879	31.9174	1426.15	195.091	268.267	1423.57	203.631	283.34	1441.56	294.75
346	1.442	-139.46	1544.71	-60.7795	30.8903	1374.46	-134.19	76.5831	1367.56	292.727	299.484	1501.8	173.956	160.812	1398.54	314.462	-10.9032	1512.02	59.1728	31.8238	1427.06	195.272	267.459	1426.47	204.017	282.206	1444.83	295.252
347	1.446	-139.524	1544.74	-60.8033	30.8941	1374.55	-134.124	76.181	1369.09	293.088	297.978	1504.81	174.292	160.039	1400.72	314.985	-11.0373	1512.38	59.0845	31.6794	1427.91	195.424	266.79	1429.05	204.535	281.038	1448.03	295.841
348	1.45	-139.587	1544.77	-60.8333	30.9021	1374.68	-134.055	75.8113	1370.51	293.456	296.4	1507.83	174.675	159.365	1402.81	315.325	-11.2217	1512.74	58.9936	31.5339	1428.81	195.58	266.218	1431.3	205.121	279.891	1451.13	296.258
